<svg width="15" height="16" viewBox="0 0 15 16" fill="none" xmlns="http://www.w3.org/2000/svg">
<g id="_?&#235;&#141;&#137;&#236;&#148;&#160;??1" clip-path="url(#clip0_319_71)">
<path id="Vector" d="M15 8.24854C15 8.73241 14.1935 9.10875 14.1129 9.56574C14.0323 10.0227 14.5968 10.6948 14.4355 11.1249C14.2473 11.555 13.3602 11.6088 13.1183 12.012C12.8495 12.3883 13.1452 13.2485 12.8226 13.5711C12.5 13.8937 11.6398 13.6249 11.2634 13.8668C10.8871 14.1356 10.8333 15.0227 10.3763 15.184C9.94624 15.3722 9.27419 14.7808 8.8172 14.8614C8.36022 14.9421 7.98387 15.7485 7.5 15.7485C7.01613 15.7485 6.63979 14.9421 6.1828 14.8614C5.72581 14.7808 5.05376 15.3453 4.62366 15.184C4.19355 14.9958 4.13978 14.1088 3.73656 13.8668C3.36022 13.598 2.5 13.8937 2.17742 13.5711C1.85484 13.2485 2.12366 12.3883 1.88172 12.012C1.6129 11.6356 0.725806 11.5819 0.564516 11.1249C0.376344 10.6948 0.967742 10.0227 0.887097 9.56574C0.806452 9.10875 0 8.73241 0 8.24854C0 7.76466 0.806452 7.38832 0.887097 6.93133C0.967742 6.47434 0.403226 5.8023 0.564516 5.37219C0.752688 4.94208 1.63979 4.88832 1.88172 4.48509C2.15054 4.10875 1.85484 3.24854 2.17742 2.92595C2.5 2.60337 3.36022 2.87219 3.73656 2.63026C4.1129 2.36144 4.16667 1.47434 4.62366 1.31305C5.05376 1.12488 5.72581 1.71628 6.1828 1.63563C6.63979 1.55499 7.01613 0.748535 7.5 0.748535C7.98387 0.748535 8.36022 1.55499 8.8172 1.63563C9.27419 1.71628 9.94624 1.15176 10.3763 1.31305C10.8065 1.50122 10.8602 2.38832 11.2634 2.63026C11.6398 2.89907 12.5 2.60337 12.8226 2.92595C13.1452 3.24854 12.8763 4.10875 13.1183 4.48509C13.3871 4.86144 14.2742 4.9152 14.4355 5.37219C14.6237 5.8023 14.0323 6.47434 14.1129 6.93133C14.1935 7.38832 15 7.76466 15 8.24854Z" fill="#6BA8DF"/>
<path id="Vector_2" d="M9.97312 5.5874L6.53226 9.02826L5 7.496L4.05914 8.43686L6.53226 10.91L10.914 6.52826L9.97312 5.5874Z" fill="white"/>
</g>
<defs>
<clipPath id="clip0_319_71">
<rect width="15" height="15" fill="white" transform="translate(0 0.748535)"/>
</clipPath>
</defs>
</svg>
